<svg width="21" height="21" viewBox="0 0 21 21" fill="none" xmlns="http://www.w3.org/2000/svg">
<path d="M7.99996 18.8333H13C17.1666 18.8333 18.8333 17.1666 18.8333 13V7.99996C18.8333 3.83329 17.1666 2.16663 13 2.16663H7.99996C3.83329 2.16663 2.16663 3.83329 2.16663 7.99996V13C2.16663 17.1666 3.83329 18.8333 7.99996 18.8333Z" stroke="#384853" stroke-width="1.3" stroke-linecap="round" stroke-linejoin="round"/>
<path d="M8.00004 8.83333C8.92052 8.83333 9.66671 8.08714 9.66671 7.16667C9.66671 6.24619 8.92052 5.5 8.00004 5.5C7.07957 5.5 6.33337 6.24619 6.33337 7.16667C6.33337 8.08714 7.07957 8.83333 8.00004 8.83333Z" stroke="#384853" stroke-width="1.3" stroke-linecap="round" stroke-linejoin="round"/>
<path d="M2.72498 16.2917L6.83331 13.5333C7.49164 13.0917 8.44164 13.1417 9.03331 13.65L9.30831 13.8917C9.95831 14.45 11.0083 14.45 11.6583 13.8917L15.125 10.9167C15.775 10.3583 16.825 10.3583 17.475 10.9167L18.8333 12.0833" stroke="#384853" stroke-width="1.3" stroke-linecap="round" stroke-linejoin="round"/>
</svg>
